<?xml version="1.0" encoding="UTF-8"?><svg xmlns="http://www.w3.org/2000/svg" xmlns:xlink="http://www.w3.org/1999/xlink" width="68" height="68" viewBox="0 0 68 68"><defs><style>.a{fill:none;}.b{fill:url(#a);}</style><linearGradient id="a" x1="2.902" y1="-12.838" x2="-0.204" y2="6.38" gradientUnits="objectBoundingBox"><stop offset="0" stop-color="#022068"/><stop offset="1" stop-color="#2078d8"/></linearGradient></defs><g transform="translate(-1047 -1450)"><rect class="a" width="68" height="68" transform="translate(1047 1450)"/><g transform="translate(1044.67 1445.83)"><path class="b" d="M60.556,16.17H12.974a1.645,1.645,0,0,0-1.644,1.644v6.354a1.645,1.645,0,0,0,1.644,1.644H60.556A1.645,1.645,0,0,0,62.2,24.168V17.814A1.645,1.645,0,0,0,60.556,16.17Zm-1.644,6.354H14.619V19.459H58.911Z"/><path class="b" d="M32.266,36.17H12.974a1.645,1.645,0,0,0-1.644,1.644V48.187a1.645,1.645,0,0,0,1.644,1.644H32.266a1.645,1.645,0,0,0,1.644-1.644V37.814A1.645,1.645,0,0,0,32.266,36.17ZM30.622,46.543h-16V39.459h16Z" transform="translate(0 -6.845)"/><path class="b" d="M32.266,63.061H12.974a1.645,1.645,0,0,0-1.644,1.644V75.078a1.645,1.645,0,0,0,1.644,1.644H32.266a1.645,1.645,0,0,0,1.644-1.644V64.705A1.645,1.645,0,0,0,32.266,63.061ZM30.622,73.433h-16V66.349h16Z" transform="translate(0 -16.049)"/><path class="b" d="M74.472,36.17H53.634a1.645,1.645,0,0,0-1.644,1.644v28.06a1.645,1.645,0,0,0,1.644,1.644H74.472a1.645,1.645,0,0,0,1.644-1.644V37.814A1.645,1.645,0,0,0,74.472,36.17ZM72.827,64.23H55.279V39.459H72.827Z" transform="translate(-13.916 -6.845)"/></g></g></svg>