<?xml version="1.0" encoding="UTF-8"?><svg xmlns="http://www.w3.org/2000/svg" xmlns:xlink="http://www.w3.org/1999/xlink" width="68" height="68" viewBox="0 0 68 68"><defs><style>.a{fill:none;}.b{fill:url(#a);}</style><linearGradient id="a" x1="3.06" y1="-1.394" x2="-0.094" y2="1" gradientUnits="objectBoundingBox"><stop offset="0" stop-color="#022068"/><stop offset="1" stop-color="#2078d8"/></linearGradient></defs><g transform="translate(-746 -1450)"><rect class="a" width="68" height="68" transform="translate(746 1450)"/><g transform="translate(757 1461)"><path class="b" d="M43.765,0H2.918A2.866,2.866,0,0,0,0,2.918V41.431a2.866,2.866,0,0,0,2.918,2.918H7.975v2.334h5.155V44.348H33.553v2.334h5.155V44.348h5.057a2.866,2.866,0,0,0,2.918-2.918V2.918A2.866,2.866,0,0,0,43.765,0ZM3.4,13.227H6.322v17.8H3.4ZM43.279,39.486a1.5,1.5,0,0,1-1.459,1.459H4.863A1.5,1.5,0,0,1,3.4,39.486V34.137H6.322v3.89H40.361V6.322H6.322v3.89H3.4V4.863A1.5,1.5,0,0,1,4.863,3.4H41.82a1.5,1.5,0,0,1,1.459,1.459ZM28.01,25.384a6.531,6.531,0,0,0,.973-2.237h2.529a8.474,8.474,0,0,1-1.653,4.085Zm.389,3.209a7.626,7.626,0,0,1-4.085,1.653V27.718a4.276,4.276,0,0,0,2.237-.973Zm.486-7.391a4.276,4.276,0,0,0-.973-2.237l1.848-1.848A7.626,7.626,0,0,1,31.414,21.2Zm-2.334-3.7a6.531,6.531,0,0,0-2.237-.973V14A8.474,8.474,0,0,1,28.4,15.658Zm.1,4.668a3.307,3.307,0,1,1-3.307-3.307A3.279,3.279,0,0,1,26.648,22.174Zm-4.279,5.544v2.529a8.474,8.474,0,0,1-4.085-1.653l1.848-1.848A4.276,4.276,0,0,0,22.369,27.718Zm0-11.087a4.276,4.276,0,0,0-2.237.973l-1.848-1.848A7.626,7.626,0,0,1,22.369,14.1Zm-3.7,2.334A6.531,6.531,0,0,0,17.7,21.2H15.172a8.474,8.474,0,0,1,1.653-4.085ZM17.8,23.147a4.276,4.276,0,0,0,.973,2.237l-1.848,1.848a7.626,7.626,0,0,1-1.653-4.085Z"/></g></g></svg>