<?xml version="1.0" encoding="UTF-8"?><svg xmlns="http://www.w3.org/2000/svg" width="58.903" height="35.72" viewBox="0 0 58.903 35.72"><defs><style>.a{fill:#2896ff;}</style></defs><g transform="translate(-14.989 -25.255)"><g transform="translate(14.989 25.255)"><path class="a" d="M88.443,162.043a12.205,12.205,0,0,1,18.066-8.606,12.279,12.279,0,0,1,3.31,2.759,10.531,10.531,0,0,1,3.946-.79,12.588,12.588,0,0,0-23.558-4.785,10.234,10.234,0,0,0-15.026,9.043,10.294,10.294,0,0,0,.077,1.234,8.2,8.2,0,0,0,1.213,16.31h5.406a9.906,9.906,0,0,1,6.566-15.164Z" transform="translate(-68.272 -144.09)"/><path class="a" d="M201.413,224.206a6.482,6.482,0,0,0-5.769-6.442,8.641,8.641,0,0,0-8.594-9.576,8.6,8.6,0,0,0-4.591,1.321,10.295,10.295,0,0,0-19.048,5.165H163.4a8.007,8.007,0,1,0,0,16.014h32.291v-.046A6.481,6.481,0,0,0,201.413,224.206Z" transform="translate(-142.51 -194.966)"/></g></g></svg>