<?xml version="1.0" encoding="UTF-8"?><svg xmlns="http://www.w3.org/2000/svg" xmlns:xlink="http://www.w3.org/1999/xlink" width="68" height="68" viewBox="0 0 68 68"><defs><style>.a{fill:none;}.b{fill:url(#a);}</style><linearGradient id="a" x1="0.5" x2="0.5" y2="1" gradientUnits="objectBoundingBox"><stop offset="0" stop-color="#022068"/><stop offset="1" stop-color="#2078d8"/></linearGradient></defs><g transform="translate(-158 -1450)"><rect class="a" width="68" height="68" transform="translate(158 1450)"/><path class="b" d="M-7.657-3.186H16.578a1.65,1.65,0,0,0,1.648-1.67,1.65,1.65,0,0,0-1.648-1.67H-7.24a2,2,0,0,1-2-1.956l-.33-2.175H16.666c3.1,0,4.68-1.89,5.142-4.944l1.6-10.789A6.469,6.469,0,0,0,23.5-27.2,1.8,1.8,0,0,0,21.478-29H-12.25l-.374-2.5c-.22-1.692-.835-2.527-3.032-2.527h-7.229a1.707,1.707,0,0,0-1.692,1.692,1.712,1.712,0,0,0,1.692,1.714h6.833l3.3,22.566C-12.316-5.054-10.712-3.186-7.657-3.186ZM19.7-25.686l-1.406,9.712c-.176,1.208-.813,1.956-1.956,1.956L-10.052-14l-1.714-11.689ZM-5.988,7.031A3.446,3.446,0,0,0-2.538,3.56,3.442,3.442,0,0,0-5.988.11,3.446,3.446,0,0,0-9.459,3.56,3.451,3.451,0,0,0-5.988,7.031Zm19.358,0A3.461,3.461,0,1,0,9.9,3.56,3.451,3.451,0,0,0,13.37,7.031Z" transform="translate(192.576 1497.036)"/></g></svg>