<?xml version="1.0" encoding="UTF-8"?><svg xmlns="http://www.w3.org/2000/svg" xmlns:xlink="http://www.w3.org/1999/xlink" width="68" height="68" viewBox="0 0 68 68"><defs><style>.a{fill:none;}.b{fill:url(#a);}</style><linearGradient id="a" x1="1.573" y1="-0.47" x2="-0.42" y2="1" gradientUnits="objectBoundingBox"><stop offset="0" stop-color="#022068"/><stop offset="1" stop-color="#2078d8"/></linearGradient></defs><g transform="translate(-447 -1450)"><rect class="a" width="68" height="68" transform="translate(447 1450)"/><path class="b" d="M11.035,6.855h10.7A10.784,10.784,0,0,1,19.18,3.711H11.211C9.2,3.711,8.125,2.676,8.125.723V-28.828a2.762,2.762,0,0,1,3.086-3.047h20.41a2.773,2.773,0,0,1,3.066,3.047V-11.8a10.72,10.72,0,0,1,3.145,2.539V-28.887q0-6.123-6.055-6.133H11.035c-4.023,0-6.055,2.07-6.055,6.133V.742C4.98,4.824,7.012,6.855,11.035,6.855Zm2.988-30.762h14.8a1.209,1.209,0,0,0,1.211-1.23,1.172,1.172,0,0,0-1.211-1.172h-14.8a1.166,1.166,0,0,0-1.23,1.172A1.2,1.2,0,0,0,14.023-23.906Zm0,6.816h14.8a1.209,1.209,0,0,0,1.211-1.23,1.172,1.172,0,0,0-1.211-1.172h-14.8a1.166,1.166,0,0,0-1.23,1.172A1.2,1.2,0,0,0,14.023-17.09ZM29.063,6.855A8.567,8.567,0,0,0,33.848,5.43l4.395,4.414a1.933,1.933,0,0,0,1.426.625,1.594,1.594,0,0,0,1.582-1.7A1.735,1.735,0,0,0,40.7,7.578L36.25,3.125a8.771,8.771,0,0,0,1.582-5.039,8.773,8.773,0,0,0-8.77-8.789,8.832,8.832,0,0,0-8.809,8.789A8.8,8.8,0,0,0,29.063,6.855Zm0-2.793a6,6,0,0,1-6.016-5.977,6.023,6.023,0,0,1,6.016-5.977A6.01,6.01,0,0,1,35.02-1.914,5.972,5.972,0,0,1,29.063,4.063Z" transform="translate(458.02 1496.02)"/></g></svg>